<svg width="150" height="43" viewBox="0 0 150 43" fill="none" xmlns="http://www.w3.org/2000/svg">
<g clip-path="url(#clip0_44_27)">
<path d="M131.4 32.8126C131.385 32.0279 131.559 31.3412 131.921 30.7527C132.283 30.1501 132.747 29.6246 133.311 29.1762C133.891 28.7278 134.543 28.3494 135.267 28.0411C135.991 27.7187 136.708 27.4456 137.418 27.2213C138.33 26.927 139.293 26.6748 140.307 26.4645C141.336 26.2543 142.335 26.0721 143.305 25.918L143.11 18.9603C143.08 18.1895 142.878 17.6219 142.501 17.2576C142.14 16.8792 141.56 16.69 140.764 16.69C140.387 16.69 140.047 16.7181 139.743 16.7742C139.439 16.8302 139.171 16.9424 138.939 17.1105C138.721 17.2786 138.548 17.5099 138.417 17.8041C138.287 18.0984 138.214 18.4768 138.2 18.9392L138.048 23.7109C138.048 23.9772 138.004 24.1874 137.917 24.3415C137.845 24.4956 137.693 24.6148 137.461 24.6988C137.229 24.7829 136.896 24.8389 136.462 24.867C136.042 24.895 135.477 24.9091 134.767 24.9091C134.115 24.9091 133.587 24.895 133.181 24.867C132.775 24.8389 132.464 24.7829 132.247 24.6988C132.03 24.6148 131.885 24.4956 131.812 24.3415C131.74 24.1874 131.696 23.9772 131.682 23.7109L131.508 19.2335C131.479 18.4908 131.61 17.8322 131.899 17.2576C132.189 16.6691 132.58 16.1646 133.072 15.7442C133.579 15.3097 134.152 14.9455 134.789 14.6512C135.441 14.3569 136.114 14.1186 136.809 13.9364C137.519 13.7402 138.222 13.6071 138.917 13.5371C139.612 13.453 140.25 13.4109 140.829 13.4109C142.075 13.4109 143.255 13.551 144.371 13.8314C145.5 14.0975 146.485 14.4899 147.325 15.0085C148.165 15.527 148.824 16.1646 149.303 16.9213C149.794 17.664 150.026 18.5189 149.997 19.4859L149.324 37.7314C149.31 37.9978 149.265 38.2079 149.193 38.362C149.136 38.5162 149.005 38.6354 148.803 38.7193C148.6 38.8035 148.31 38.8595 147.933 38.8876C147.571 38.9155 147.086 38.9296 146.478 38.9296C145.912 38.9296 145.457 38.9155 145.108 38.8876C144.776 38.8595 144.515 38.8035 144.326 38.7193C144.153 38.6354 144.03 38.5162 143.957 38.362C143.9 38.2079 143.871 37.9978 143.871 37.7314L143.849 36.9957C143.458 37.276 143.03 37.5492 142.567 37.8155C142.104 38.0678 141.611 38.299 141.089 38.5092C140.568 38.7054 140.011 38.8665 139.417 38.9927C138.837 39.1188 138.229 39.1819 137.592 39.1819C136.578 39.1819 135.687 39.0487 134.919 38.7825C134.152 38.5022 133.507 38.1308 132.985 37.6684C132.479 37.1919 132.095 36.6384 131.834 36.0078C131.573 35.3632 131.436 34.6765 131.421 33.9478L131.4 32.8126ZM137.353 33.3172C137.353 33.7375 137.418 34.102 137.548 34.4102C137.678 34.7045 137.852 34.9497 138.07 35.1459C138.287 35.3281 138.54 35.4683 138.83 35.5664C139.135 35.6505 139.46 35.6924 139.808 35.6924C140.647 35.6924 141.372 35.5594 141.98 35.2931C142.589 35.0269 143.11 34.7185 143.544 34.3682L143.393 28.966C142.611 29.0921 141.922 29.2392 141.329 29.4074C140.735 29.5616 140.205 29.7366 139.743 29.9328C139.018 30.2552 138.439 30.6125 138.004 31.0049C137.57 31.3833 137.353 31.8807 137.353 32.4974V33.3172Z" fill="white"/>
<path d="M110.029 32.8126C110.014 32.0279 110.188 31.3412 110.55 30.7527C110.913 30.1501 111.376 29.6246 111.941 29.1762C112.52 28.7278 113.172 28.3494 113.896 28.0411C114.62 27.7187 115.337 27.4456 116.047 27.2213C116.96 26.927 117.923 26.6748 118.937 26.4645C119.965 26.2543 120.965 26.0721 121.935 25.918L121.739 18.9603C121.711 18.1895 121.508 17.6219 121.131 17.2576C120.769 16.8792 120.19 16.69 119.393 16.69C119.016 16.69 118.676 16.7181 118.372 16.7742C118.068 16.8302 117.8 16.9424 117.568 17.1105C117.351 17.2786 117.177 17.5099 117.047 17.8041C116.916 18.0984 116.844 18.4768 116.829 18.9392L116.677 23.7109C116.677 23.9772 116.634 24.1874 116.547 24.3415C116.474 24.4956 116.322 24.6148 116.091 24.6988C115.859 24.7829 115.526 24.8389 115.091 24.867C114.671 24.895 114.106 24.9091 113.397 24.9091C112.745 24.9091 112.216 24.895 111.811 24.867C111.405 24.8389 111.093 24.7829 110.876 24.6988C110.659 24.6148 110.514 24.4956 110.442 24.3415C110.369 24.1874 110.326 23.9772 110.311 23.7109L110.138 19.2335C110.109 18.4908 110.239 17.8322 110.529 17.2576C110.818 16.6691 111.209 16.1646 111.702 15.7442C112.209 15.3097 112.781 14.9455 113.418 14.6512C114.07 14.3569 114.744 14.1186 115.439 13.9364C116.148 13.7402 116.851 13.6071 117.546 13.5371C118.242 13.453 118.879 13.4109 119.458 13.4109C120.704 13.4109 121.884 13.551 123 13.8314C124.129 14.0975 125.114 14.4899 125.954 15.0085C126.794 15.527 127.453 16.1646 127.932 16.9213C128.424 17.664 128.656 18.5189 128.627 19.4859L127.953 37.7314C127.939 37.9978 127.895 38.2079 127.823 38.362C127.765 38.5162 127.635 38.6354 127.432 38.7193C127.229 38.8035 126.939 38.8595 126.563 38.8876C126.201 38.9155 125.715 38.9296 125.107 38.9296C124.542 38.9296 124.086 38.9155 123.738 38.8876C123.405 38.8595 123.144 38.8035 122.956 38.7193C122.782 38.6354 122.659 38.5162 122.587 38.362C122.529 38.2079 122.5 37.9978 122.5 37.7314L122.478 36.9957C122.087 37.276 121.66 37.5492 121.196 37.8155C120.733 38.0678 120.24 38.299 119.719 38.5092C119.198 38.7054 118.64 38.8665 118.046 38.9927C117.467 39.1188 116.858 39.1819 116.221 39.1819C115.207 39.1819 114.316 39.0487 113.549 38.7825C112.781 38.5022 112.136 38.1308 111.615 37.6684C111.108 37.1919 110.724 36.6384 110.463 36.0078C110.203 35.3632 110.065 34.6765 110.051 33.9478L110.029 32.8126ZM115.982 33.3172C115.982 33.7375 116.047 34.102 116.178 34.4102C116.308 34.7045 116.482 34.9497 116.699 35.1459C116.916 35.3281 117.17 35.4683 117.459 35.5664C117.763 35.6505 118.089 35.6924 118.437 35.6924C119.277 35.6924 120.001 35.5594 120.61 35.2931C121.218 35.0269 121.739 34.7185 122.174 34.3682L122.022 28.966C121.24 29.0921 120.552 29.2392 119.958 29.4074C119.364 29.5616 118.835 29.7366 118.372 29.9328C117.648 30.2552 117.068 30.6125 116.634 31.0049C116.199 31.3833 115.982 31.8807 115.982 32.4974V33.3172Z" fill="white"/>
<path d="M100 4.22506C100 3.93078 100.029 3.68555 100.087 3.48935C100.159 3.27914 100.319 3.11799 100.565 3.00588C100.811 2.89377 101.166 2.81671 101.629 2.77466C102.108 2.71861 102.738 2.69058 103.52 2.69058C104.302 2.69058 104.925 2.71861 105.388 2.77466C105.866 2.81671 106.228 2.89377 106.474 3.00588C106.721 3.11799 106.873 3.27914 106.931 3.48935C107.003 3.68555 107.039 3.93078 107.039 4.22506L106.366 37.7314C106.366 37.9978 106.33 38.2079 106.257 38.3621C106.185 38.5162 106.047 38.6354 105.844 38.7194C105.642 38.8035 105.352 38.8595 104.975 38.8876C104.613 38.9155 104.128 38.9297 103.52 38.9297C102.911 38.9297 102.419 38.9155 102.042 38.8876C101.68 38.8595 101.398 38.8035 101.195 38.7194C101.007 38.6354 100.876 38.5162 100.804 38.3621C100.731 38.2079 100.695 37.9978 100.695 37.7314L100 4.22506Z" fill="white"/>
<path d="M78.2827 19.8011C78.2393 18.68 78.4711 17.72 78.978 16.9213C79.4994 16.1085 80.1947 15.4429 81.0637 14.9244C81.9473 14.4059 82.9612 14.0275 84.1054 13.7893C85.2497 13.5371 86.4229 13.4109 87.6251 13.4109C88.8273 13.4109 90.0005 13.5371 91.1448 13.7893C92.289 14.0275 93.2956 14.4059 94.1647 14.9244C95.0483 15.4429 95.7436 16.1085 96.2505 16.9213C96.7719 17.72 97.0109 18.68 96.9675 19.8011L96.4677 33.1069C96.4243 34.2561 96.1491 35.223 95.6422 36.0078C95.1352 36.7786 94.4762 37.4021 93.6651 37.8786C92.854 38.3411 91.9269 38.6773 90.8841 38.8876C89.8412 39.0838 88.762 39.1819 87.6468 39.1819C86.517 39.1819 85.4308 39.0838 84.3879 38.8876C83.345 38.6773 82.4108 38.3411 81.5851 37.8786C80.774 37.4021 80.115 36.7786 79.608 36.0078C79.1011 35.237 78.8259 34.277 78.7825 33.128L78.2827 19.8011ZM84.7355 33.2961C84.7209 33.8286 84.7644 34.277 84.8658 34.6415C84.9818 35.0058 85.1555 35.3 85.3873 35.5243C85.6336 35.7486 85.9377 35.9097 86.2998 36.0078C86.6763 36.1059 87.1181 36.1549 87.6251 36.1549C88.639 36.1549 89.3777 35.9448 89.8412 35.5243C90.3191 35.1039 90.5437 34.3542 90.5147 33.2751L90.0802 19.4438C90.0657 18.8552 89.9933 18.3787 89.8629 18.0143C89.747 17.65 89.5805 17.3697 89.3631 17.1735C89.1459 16.9773 88.8925 16.8513 88.6027 16.7953C88.3131 16.7251 87.9872 16.69 87.6251 16.69C87.263 16.69 86.937 16.7251 86.6475 16.7953C86.3577 16.8513 86.1043 16.9773 85.887 17.1735C85.6697 17.3697 85.4959 17.65 85.3655 18.0143C85.2497 18.3787 85.1845 18.8552 85.17 19.4438L84.7355 33.2961Z" fill="white"/>
<path d="M54.0441 5.14996C54.0297 4.7856 54.0659 4.49132 54.1527 4.2671C54.2397 4.04288 54.4208 3.86773 54.6959 3.7416C54.9856 3.61548 55.3912 3.5314 55.9126 3.48935C56.4341 3.4333 57.1292 3.40527 57.9984 3.40527C58.853 3.40527 59.5409 3.4333 60.0624 3.48935C60.5838 3.5314 60.9822 3.61548 61.2573 3.7416C61.547 3.86773 61.7354 4.04288 61.8222 4.2671C61.9235 4.49132 61.967 4.7856 61.9526 5.14996L61.4963 20.4527H67.8838L67.4494 5.14996C67.4349 4.7856 67.471 4.49132 67.558 4.2671C67.6449 4.04288 67.8259 3.86773 68.1012 3.7416C68.3908 3.61548 68.7965 3.5314 69.3179 3.48935C69.8392 3.4333 70.5345 3.40527 71.4035 3.40527C72.2581 3.40527 72.9462 3.4333 73.4676 3.48935C73.989 3.5314 74.3873 3.61548 74.6626 3.7416C74.9522 3.86773 75.1405 4.04288 75.2274 4.2671C75.3288 4.49132 75.3723 4.7856 75.3577 5.14996L74.4019 37.5002C74.3873 37.8225 74.3438 38.0818 74.2715 38.2779C74.2135 38.4602 74.0831 38.6003 73.8804 38.6984C73.6776 38.7965 73.3806 38.8595 72.9897 38.8876C72.5985 38.9155 72.0698 38.9297 71.4035 38.9297C70.7373 38.9297 70.2013 38.9155 69.7958 38.8876C69.4048 38.8595 69.1078 38.7965 68.9051 38.6984C68.7023 38.6003 68.5647 38.4602 68.4922 38.2779C68.4342 38.0818 68.3981 37.8225 68.3835 37.5002L68.0142 24.4466H61.3877L60.9966 37.5002C60.9966 37.8225 60.9604 38.0818 60.888 38.2779C60.8301 38.4602 60.6924 38.6003 60.4752 38.6984C60.2724 38.7965 59.9755 38.8595 59.5844 38.8876C59.1933 38.9155 58.6647 38.9297 57.9984 38.9297C57.332 38.9297 56.7962 38.9155 56.3906 38.8876C55.9995 38.8595 55.7026 38.7965 55.4998 38.6984C55.297 38.6003 55.1594 38.4602 55.087 38.2779C55.0291 38.0818 54.9929 37.8225 54.9784 37.5002L54.0441 5.14996Z" fill="white"/>
<path fill-rule="evenodd" clip-rule="evenodd" d="M35.5853 13.5394C41.5675 16.8829 41.5675 25.2374 35.5853 28.5809L13.4678 40.9425C7.48297 44.2875 0 40.1088 0 33.4218V8.69842C0 2.01137 7.48296 -2.16728 13.4678 1.17768L35.5853 13.5394ZM19.6524 23.4613C15.1939 23.4705 12.5097 20.2146 12.5015 15.901C12.4934 11.5874 7.43614 7.38379 7.18706 11.6906C7.18322 11.7569 7.18128 11.8238 7.18128 11.8915V30.2059C7.18128 32.8375 10.13 34.4818 12.4884 33.1655L28.8943 24.0084C30.0615 23.3568 26.6351 23.394 22.5918 23.438C21.629 23.4484 20.6314 23.4593 19.6524 23.4613Z" fill="url(#paint0_linear_44_27)"/>
</g>
<defs>
<linearGradient id="paint0_linear_44_27" x1="-7.76144e-09" y1="2.34803e-06" x2="40.6631" y2="1.54166" gradientUnits="userSpaceOnUse">
<stop stop-color="#5A0DFF"/>
<stop offset="0.395" stop-color="#FF29B8"/>
<stop offset="1" stop-color="#FF581C"/>
</linearGradient>
<clipPath id="clip0_44_27">
<rect width="150" height="43" fill="white"/>
</clipPath>
</defs>
</svg>
