<svg width="43" height="37" viewBox="0 0 43 37" fill="none" xmlns="http://www.w3.org/2000/svg">
<mask id="path-1-inside-1_11_48" fill="white">
<path d="M24.3132 9.63546C23.8698 9.63546 23.5069 9.99548 23.5438 10.4373C23.6266 11.4279 23.8622 12.4014 24.2439 13.3228C24.7281 14.4918 25.4378 15.554 26.3326 16.4487C27.2273 17.3435 28.2895 18.0532 29.4585 18.5374C30.3799 18.9191 31.3534 19.1547 32.344 19.2375C32.7858 19.2743 33.1458 18.9115 33.1458 18.4681C33.1458 18.0248 32.7855 17.6695 32.3444 17.6253C31.5648 17.5471 30.7994 17.3551 30.0729 17.0541C29.0987 16.6506 28.2135 16.0591 27.4678 15.3135C26.7222 14.5678 26.1307 13.6826 25.7272 12.7084C25.4262 11.9819 25.2342 11.2165 25.156 10.4369C25.1118 9.99575 24.7565 9.63546 24.3132 9.63546Z"/>
</mask>
<path d="M24.3132 9.63546C23.8698 9.63546 23.5069 9.99548 23.5438 10.4373C23.6266 11.4279 23.8622 12.4014 24.2439 13.3228C24.7281 14.4918 25.4378 15.554 26.3326 16.4487C27.2273 17.3435 28.2895 18.0532 29.4585 18.5374C30.3799 18.9191 31.3534 19.1547 32.344 19.2375C32.7858 19.2743 33.1458 18.9115 33.1458 18.4681C33.1458 18.0248 32.7855 17.6695 32.3444 17.6253C31.5648 17.5471 30.7994 17.3551 30.0729 17.0541C29.0987 16.6506 28.2135 16.0591 27.4678 15.3135C26.7222 14.5678 26.1307 13.6826 25.7272 12.7084C25.4262 11.9819 25.2342 11.2165 25.156 10.4369C25.1118 9.99575 24.7565 9.63546 24.3132 9.63546Z" stroke="white" stroke-width="10" mask="url(#path-1-inside-1_11_48)"/>
<mask id="path-2-inside-2_11_48" fill="white">
<path d="M33.1459 18.5319C33.1459 18.0886 32.7859 17.7257 32.3441 17.7626C31.3535 17.8453 30.38 18.081 29.4586 18.4626C28.2896 18.9468 27.2274 19.6566 26.3326 20.5513C25.4379 21.446 24.7282 22.5082 24.244 23.6773C23.8623 24.5986 23.6266 25.5721 23.5439 26.5627C23.507 27.0046 23.8699 27.3646 24.3133 27.3646C24.7566 27.3646 25.1119 27.0043 25.1561 26.5632C25.2343 25.7836 25.4263 25.0182 25.7272 24.2917C26.1308 23.3174 26.7223 22.4322 27.4679 21.6866C28.2136 20.9409 29.0988 20.3495 30.073 19.9459C30.7995 19.645 31.5649 19.453 32.3445 19.3748C32.7856 19.3305 33.1459 18.9753 33.1459 18.5319Z"/>
</mask>
<path d="M33.1459 18.5319C33.1459 18.0886 32.7859 17.7257 32.3441 17.7626C31.3535 17.8453 30.38 18.081 29.4586 18.4626C28.2896 18.9468 27.2274 19.6566 26.3326 20.5513C25.4379 21.446 24.7282 22.5082 24.244 23.6773C23.8623 24.5986 23.6266 25.5721 23.5439 26.5627C23.507 27.0046 23.8699 27.3646 24.3133 27.3646C24.7566 27.3646 25.1119 27.0043 25.1561 26.5632C25.2343 25.7836 25.4263 25.0182 25.7272 24.2917C26.1308 23.3174 26.7223 22.4322 27.4679 21.6866C28.2136 20.9409 29.0988 20.3495 30.073 19.9459C30.7995 19.645 31.5649 19.453 32.3445 19.3748C32.7856 19.3305 33.1459 18.9753 33.1459 18.5319Z" stroke="white" stroke-width="10" mask="url(#path-2-inside-2_11_48)"/>
<rect y="17.3438" width="30.8333" height="2.3125" rx="1.15625" fill="white"/>
</svg>
