<svg width="27" height="22" viewBox="0 0 27 22" fill="none" xmlns="http://www.w3.org/2000/svg">
<path d="M0 21.0977V15.8233C0 15.0761 0.240341 14.4497 0.721023 13.9442C1.2017 13.4388 1.77955 13.1861 2.45455 13.1861H6.47386C6.88295 13.1861 7.27159 13.2959 7.63977 13.5157C8.00795 13.7355 8.30455 14.0322 8.52955 14.4058C9.12273 15.2629 9.85398 15.9331 10.7233 16.4166C11.5926 16.9001 12.5182 17.1419 13.5 17.1419C14.5023 17.1419 15.4381 16.9001 16.3074 16.4166C17.1767 15.9331 17.8977 15.2629 18.4705 14.4058C18.7364 14.0322 19.0483 13.7355 19.4062 13.5157C19.7642 13.2959 20.1375 13.1861 20.5261 13.1861H24.5455C25.2409 13.1861 25.8239 13.4388 26.2943 13.9442C26.7648 14.4497 27 15.0761 27 15.8233V21.0977H18.4091V18.0979C17.6932 18.6473 16.921 19.0648 16.0926 19.3505C15.2642 19.6362 14.4 19.7791 13.5 19.7791C12.6205 19.7791 11.7614 19.6307 10.9227 19.334C10.0841 19.0374 9.30682 18.6143 8.59091 18.0649V21.0977H0ZM13.5 15.8233C12.7227 15.8233 11.9864 15.631 11.2909 15.2464C10.5955 14.8618 10.0125 14.3288 9.54205 13.6476C9.19432 13.0981 8.75966 12.6641 8.23807 12.3454C7.71648 12.0268 7.14886 11.8674 6.53523 11.8674C6.98523 11.0543 7.93636 10.4115 9.38864 9.93899C10.8409 9.46649 12.2114 9.23024 13.5 9.23024C14.7886 9.23024 16.1591 9.46649 17.6114 9.93899C19.0636 10.4115 20.0148 11.0543 20.4648 11.8674C19.8716 11.8674 19.3091 12.0268 18.7773 12.3454C18.2455 12.6641 17.8057 13.0981 17.458 13.6476C17.008 14.3508 16.4352 14.8892 15.7398 15.2629C15.0443 15.6365 14.2977 15.8233 13.5 15.8233ZM3.68182 11.8674C2.65909 11.8674 1.78977 11.4829 1.07386 10.7137C0.357955 9.94448 0 9.01047 0 7.91163C0 6.79082 0.357955 5.85131 1.07386 5.09311C1.78977 4.33491 2.65909 3.95582 3.68182 3.95582C4.725 3.95582 5.59943 4.33491 6.30511 5.09311C7.0108 5.85131 7.36364 6.79082 7.36364 7.91163C7.36364 9.01047 7.0108 9.94448 6.30511 10.7137C5.59943 11.4829 4.725 11.8674 3.68182 11.8674ZM23.3182 11.8674C22.2955 11.8674 21.4261 11.4829 20.7102 10.7137C19.9943 9.94448 19.6364 9.01047 19.6364 7.91163C19.6364 6.79082 19.9943 5.85131 20.7102 5.09311C21.4261 4.33491 22.2955 3.95582 23.3182 3.95582C24.3614 3.95582 25.2358 4.33491 25.9415 5.09311C26.6472 5.85131 27 6.79082 27 7.91163C27 9.01047 26.6472 9.94448 25.9415 10.7137C25.2358 11.4829 24.3614 11.8674 23.3182 11.8674ZM13.5 7.91163C12.4773 7.91163 11.608 7.52704 10.892 6.75785C10.1761 5.98866 9.81818 5.05465 9.81818 3.95582C9.81818 2.835 10.1761 1.89549 10.892 1.1373C11.608 0.379099 12.4773 0 13.5 0C14.5432 0 15.4176 0.379099 16.1233 1.1373C16.829 1.89549 17.1818 2.835 17.1818 3.95582C17.1818 5.05465 16.829 5.98866 16.1233 6.75785C15.4176 7.52704 14.5432 7.91163 13.5 7.91163Z" fill="url(#paint0_linear_66_250)"/>
<defs>
<linearGradient id="paint0_linear_66_250" x1="0" y1="10.5488" x2="33.0239" y2="10.5488" gradientUnits="userSpaceOnUse">
<stop stop-color="#5A0DFF"/>
<stop offset="0.31" stop-color="#FF29B8"/>
<stop offset="0.66" stop-color="#FF581C"/>
<stop offset="0.87" stop-color="#FF29B8"/>
<stop offset="1" stop-color="#5A0DFF"/>
</linearGradient>
</defs>
</svg>
