<svg width="25" height="25" viewBox="0 0 25 25" fill="none" xmlns="http://www.w3.org/2000/svg">
<g clip-path="url(#clip0_45_90)">
<path d="M7.323 0.0875175C5.993 0.150226 5.08477 0.362518 4.29071 0.674393C3.46904 0.994705 2.77248 1.42439 2.07946 2.11991C1.38654 2.81543 0.959668 3.51241 0.641752 4.33554C0.334043 5.13116 0.125502 6.04023 0.0667516 7.37096C0.00800165 8.70168 -0.00501918 9.1295 0.00154332 12.5241C0.00800165 15.9185 0.0230017 16.344 0.0874808 17.6775C0.151022 19.0072 0.362481 19.9152 0.67446 20.7095C0.995293 21.5313 1.42446 22.2275 2.12029 22.9207C2.81602 23.614 3.51248 24.0398 4.33748 24.3582C5.13248 24.6655 6.04175 24.875 7.37227 24.9332C8.70279 24.9916 9.13102 25.0051 12.5246 24.9986C15.9181 24.9921 16.3454 24.977 17.6785 24.9138C19.0119 24.8505 19.915 24.6375 20.7096 24.327C21.5313 24.0055 22.2281 23.577 22.9208 22.8811C23.6135 22.185 24.0401 21.4875 24.3578 20.664C24.6658 19.869 24.8751 18.9598 24.9328 17.6302C24.9911 16.296 25.0049 15.87 24.9984 12.4761C24.9919 9.082 24.9765 8.65648 24.9133 7.32346C24.8501 5.99043 24.6383 5.08523 24.3265 4.29043C24.0053 3.46866 23.5765 2.77293 22.8811 2.07918C22.1856 1.38543 21.4875 0.959184 20.6644 0.642205C19.8687 0.334393 18.9601 0.124705 17.6296 0.067205C16.299 0.00970498 15.8708 -0.00519084 12.476 0.00147582C9.08123 0.00793416 8.65623 0.0225175 7.323 0.0875175ZM7.46904 22.6845C6.25029 22.6315 5.58852 22.429 5.14748 22.2595C4.56352 22.0345 4.14748 21.7625 3.708 21.3272C3.26842 20.892 2.99852 20.4745 2.7705 19.8918C2.59925 19.4507 2.393 18.7897 2.33602 17.571C2.27404 16.2538 2.26102 15.8582 2.25373 12.521C2.24644 9.18377 2.25925 8.78866 2.31696 7.47096C2.36904 6.25325 2.57279 5.59075 2.74196 5.14991C2.96696 4.56523 3.238 4.14991 3.67425 3.71075C4.1105 3.27148 4.52675 3.00096 5.10998 2.77293C5.5506 2.60096 6.21154 2.39648 7.42977 2.33845C8.748 2.27595 9.143 2.26346 12.4798 2.25616C15.8165 2.24887 16.2126 2.26137 17.5313 2.3195C18.749 2.37241 19.4119 2.57418 19.8522 2.7445C20.4363 2.9695 20.8522 3.23971 21.2913 3.67679C21.7306 4.11366 22.0013 4.52846 22.2294 5.11293C22.4015 5.55221 22.6061 6.21293 22.6636 7.432C22.7263 8.75023 22.7406 9.14554 22.7465 12.482C22.7526 15.8185 22.7408 16.2147 22.683 17.532C22.6299 18.7507 22.4278 19.4127 22.258 19.8543C22.033 20.438 21.7619 20.8543 21.3253 21.2932C20.8888 21.7323 20.4731 22.0027 19.8896 22.2307C19.4496 22.4025 18.7878 22.6075 17.5706 22.6655C16.2523 22.7275 15.8573 22.7405 12.5192 22.7478C9.18123 22.7551 8.78727 22.7416 7.46904 22.6845ZM17.6594 5.81918C17.6598 6.11588 17.7483 6.40577 17.9136 6.65218C18.0788 6.89859 18.3135 7.09046 18.5878 7.20352C18.8621 7.31657 19.1638 7.34574 19.4547 7.28732C19.7456 7.22891 20.0126 7.08554 20.222 6.87535C20.4314 6.66516 20.5738 6.39759 20.6311 6.10648C20.6884 5.81537 20.6581 5.5138 20.544 5.23992C20.4299 4.96603 20.2372 4.73212 19.9902 4.56779C19.7431 4.40345 19.4529 4.31607 19.1562 4.31668C18.7585 4.31751 18.3774 4.47626 18.0967 4.75801C17.816 5.03977 17.6587 5.42147 17.6594 5.81918ZM6.08175 12.5125C6.08873 16.0575 8.96779 18.9247 12.512 18.918C16.0563 18.9113 18.9255 16.0325 18.9188 12.4875C18.9121 8.94252 16.0324 6.0745 12.4876 6.08148C8.94279 6.08846 6.07508 8.96794 6.08175 12.5125ZM8.33331 12.508C8.33169 11.684 8.57446 10.8779 9.03095 10.1918C9.48743 9.50569 10.1371 8.97036 10.8978 8.65349C11.6586 8.33662 12.4962 8.25244 13.3047 8.41161C14.1133 8.57078 14.8565 8.96613 15.4404 9.54769C16.0243 10.1292 16.4226 10.8709 16.5849 11.6788C16.7473 12.4867 16.6665 13.3247 16.3526 14.0867C16.0388 14.8486 15.5061 15.5004 14.8218 15.9596C14.1375 16.4188 13.3324 16.6648 12.5083 16.6665C11.9611 16.6676 11.419 16.561 10.9131 16.3526C10.4071 16.1442 9.94713 15.8382 9.55943 15.4521C9.17174 15.0659 8.86391 14.6072 8.65353 14.102C8.44315 13.5969 8.33434 13.0552 8.33331 12.508Z" fill="#151515"/>
</g>
<defs>
<clipPath id="clip0_45_90">
<rect width="25" height="25" fill="white"/>
</clipPath>
</defs>
</svg>
