<svg width="50" height="96" viewBox="0 0 50 96" fill="none" xmlns="http://www.w3.org/2000/svg">
<mask id="path-1-inside-1_11_43" fill="white">
<path d="M2.08282 25C0.93251 25 -0.00901413 25.9341 0.0867119 27.0804C0.301346 29.6507 0.912804 32.1765 1.90301 34.5671C3.15938 37.6002 5.00087 40.3562 7.32233 42.6777C9.6438 44.9991 12.3998 46.8406 15.4329 48.097C17.8235 49.0872 20.3493 49.6987 22.9196 49.9133C24.0659 50.009 25 49.0675 25 47.9172C25 46.7669 24.0652 45.8451 22.9206 45.7303C20.8979 45.5274 18.912 45.0292 17.027 44.2484C14.4993 43.2014 12.2025 41.6668 10.2679 39.7321C8.33324 37.7975 6.79859 35.5007 5.75157 32.973C4.97078 31.088 4.47256 29.1021 4.26967 27.0794C4.15486 25.9348 3.23314 25 2.08282 25Z"/>
</mask>
<path d="M2.08282 25C0.93251 25 -0.00901413 25.9341 0.0867119 27.0804C0.301346 29.6507 0.912804 32.1765 1.90301 34.5671C3.15938 37.6002 5.00087 40.3562 7.32233 42.6777C9.6438 44.9991 12.3998 46.8406 15.4329 48.097C17.8235 49.0872 20.3493 49.6987 22.9196 49.9133C24.0659 50.009 25 49.0675 25 47.9172C25 46.7669 24.0652 45.8451 22.9206 45.7303C20.8979 45.5274 18.912 45.0292 17.027 44.2484C14.4993 43.2014 12.2025 41.6668 10.2679 39.7321C8.33324 37.7975 6.79859 35.5007 5.75157 32.973C4.97078 31.088 4.47256 29.1021 4.26967 27.0794C4.15486 25.9348 3.23314 25 2.08282 25Z" stroke="white" stroke-width="10" mask="url(#path-1-inside-1_11_43)"/>
<mask id="path-2-inside-2_11_43" fill="white">
<path d="M25 48.0828C25 46.9325 24.0659 45.991 22.9196 46.0867C20.3493 46.3013 17.8235 46.9128 15.4329 47.903C12.3998 49.1594 9.6438 51.0009 7.32233 53.3223C5.00087 55.6438 3.15938 58.3998 1.90301 61.4329C0.912804 63.8235 0.301346 66.3493 0.0867131 68.9196C-0.00901295 70.0659 0.932511 71 2.08282 71C3.23313 71 4.15486 70.0652 4.26967 68.9206C4.47256 66.8979 4.97078 64.912 5.75157 63.027C6.79859 60.4993 8.33324 58.2025 10.2679 56.2679C12.2025 54.3332 14.4993 52.7986 17.027 51.7516C18.912 50.9708 20.8979 50.4726 22.9206 50.2697C24.0652 50.1549 25 49.2331 25 48.0828Z"/>
</mask>
<path d="M25 48.0828C25 46.9325 24.0659 45.991 22.9196 46.0867C20.3493 46.3013 17.8235 46.9128 15.4329 47.903C12.3998 49.1594 9.6438 51.0009 7.32233 53.3223C5.00087 55.6438 3.15938 58.3998 1.90301 61.4329C0.912804 63.8235 0.301346 66.3493 0.0867131 68.9196C-0.00901295 70.0659 0.932511 71 2.08282 71C3.23313 71 4.15486 70.0652 4.26967 68.9206C4.47256 66.8979 4.97078 64.912 5.75157 63.027C6.79859 60.4993 8.33324 58.2025 10.2679 56.2679C12.2025 54.3332 14.4993 52.7986 17.027 51.7516C18.912 50.9708 20.8979 50.4726 22.9206 50.2697C24.0652 50.1549 25 49.2331 25 48.0828Z" stroke="white" stroke-width="10" mask="url(#path-2-inside-2_11_43)"/>
</svg>
