<svg width="15" height="15" viewBox="0 0 15 15" fill="none" xmlns="http://www.w3.org/2000/svg">
<path d="M4.21348 3.24847L6.31086 0.572173C6.46067 0.375296 6.63858 0.230715 6.84457 0.138429C7.05056 0.046143 7.26592 0 7.49064 0C7.71536 0 7.93071 0.046143 8.1367 0.138429C8.3427 0.230715 8.5206 0.375296 8.67041 0.572173L10.7678 3.24847L13.9513 4.30053C14.2759 4.39896 14.5318 4.58046 14.7191 4.84501C14.9064 5.10957 15 5.4018 15 5.72173C15 5.86939 14.9782 6.01705 14.9345 6.1647C14.8908 6.31236 14.819 6.45387 14.7191 6.58922L12.6592 9.46854L12.7341 12.4955C12.7466 12.9262 12.603 13.2892 12.3034 13.5845C12.0037 13.8798 11.6542 14.0275 11.2547 14.0275C11.2297 14.0275 11.0924 14.009 10.8427 13.9721L7.49064 13.0492L4.13858 13.9721C4.07615 13.9967 4.00749 14.0121 3.93258 14.0182C3.85768 14.0244 3.78901 14.0275 3.72659 14.0275C3.32709 14.0275 2.97753 13.8798 2.6779 13.5845C2.37828 13.2892 2.23471 12.9262 2.24719 12.4955L2.3221 9.45008L0.280899 6.58922C0.181024 6.45387 0.109238 6.31236 0.0655431 6.1647C0.0218477 6.01705 0 5.86939 0 5.72173C0 5.41411 0.0905119 5.12802 0.271536 4.86347C0.452559 4.59892 0.705368 4.41127 1.02996 4.30053L4.21348 3.24847ZM5.13109 4.52201L1.49813 5.70327L3.82022 9.00711L3.74532 12.5324L7.49064 11.5173L11.236 12.5509L11.161 9.00711L13.4831 5.74019L9.85019 4.52201L7.49064 1.47658L5.13109 4.52201Z" fill="url(#paint0_linear_66_288)"/>
<defs>
<linearGradient id="paint0_linear_66_288" x1="0" y1="7.01373" x2="18.3466" y2="7.01373" gradientUnits="userSpaceOnUse">
<stop stop-color="#5A0DFF"/>
<stop offset="0.31" stop-color="#FF29B8"/>
<stop offset="0.66" stop-color="#FF581C"/>
<stop offset="0.87" stop-color="#FF29B8"/>
<stop offset="1" stop-color="#5A0DFF"/>
</linearGradient>
</defs>
</svg>
