<svg width="25" height="25" viewBox="0 0 25 25" fill="none" xmlns="http://www.w3.org/2000/svg">
<path d="M16.25 5L9.375 5C9.02083 5 8.69271 5.08854 8.39063 5.26562C8.08854 5.44271 7.875 5.6875 7.75 6L5.125 12.125C5.08333 12.2292 5.05208 12.3333 5.03125 12.4375C5.01042 12.5417 5 12.6458 5 12.75V13.75C5 14.1042 5.11979 14.401 5.35938 14.6406C5.59896 14.8802 5.89583 15 6.25 15H12L11.25 19.25C11.2083 19.4583 11.2187 19.6562 11.2812 19.8438C11.3438 20.0312 11.4479 20.1979 11.5938 20.3438L12.5 21.25L18.25 15C18.4167 14.8333 18.5417 14.6458 18.625 14.4375C18.7083 14.2292 18.75 14 18.75 13.75V7.5C18.75 6.8125 18.5052 6.22396 18.0156 5.73438C17.526 5.24479 16.9375 5 16.25 5ZM12.5 0C14.2292 0 15.8542 0.328125 17.375 0.984375C18.8958 1.64062 20.2188 2.53125 21.3438 3.65625C22.4688 4.78125 23.3594 6.10417 24.0156 7.625C24.6719 9.14583 25 10.7708 25 12.5C25 14.2292 24.6719 15.8542 24.0156 17.375C23.3594 18.8958 22.4688 20.2188 21.3438 21.3438C20.2188 22.4688 18.8958 23.3594 17.375 24.0156C15.8542 24.6719 14.2292 25 12.5 25C10.7708 25 9.14583 24.6719 7.625 24.0156C6.10417 23.3594 4.78125 22.4687 3.65625 21.3437C2.53125 20.2187 1.64062 18.8958 0.984375 17.375C0.328125 15.8542 0 14.2292 0 12.5C0 10.7708 0.328125 9.14583 0.984375 7.625C1.64063 6.10417 2.53125 4.78125 3.65625 3.65625C4.78125 2.53125 6.10417 1.64062 7.625 0.984375C9.14583 0.328125 10.7708 0 12.5 0Z" fill="#C01E1E"/>
</svg>
