<svg width="25" height="25" viewBox="0 0 25 25" fill="none" xmlns="http://www.w3.org/2000/svg">
<path d="M8.75 20H15.625C15.9792 20 16.3073 19.9115 16.6094 19.7344C16.9115 19.5573 17.125 19.3125 17.25 19L19.875 12.875C19.9167 12.7708 19.9479 12.6667 19.9688 12.5625C19.9896 12.4583 20 12.3542 20 12.25V11.25C20 10.8958 19.8802 10.599 19.6406 10.3594C19.401 10.1198 19.1042 10 18.75 10H13L13.75 5.75C13.7917 5.54167 13.7813 5.34375 13.7188 5.15625C13.6562 4.96875 13.5521 4.80208 13.4062 4.65625L12.5 3.75L6.75 10C6.58333 10.1667 6.45833 10.3542 6.375 10.5625C6.29167 10.7708 6.25 11 6.25 11.25V17.5C6.25 18.1875 6.49479 18.776 6.98438 19.2656C7.47396 19.7552 8.0625 20 8.75 20ZM12.5 25C10.7708 25 9.14583 24.6719 7.625 24.0156C6.10417 23.3594 4.78125 22.4688 3.65625 21.3438C2.53125 20.2188 1.64063 18.8958 0.984375 17.375C0.328125 15.8542 0 14.2292 0 12.5C0 10.7708 0.328125 9.14583 0.984375 7.625C1.64063 6.10417 2.53125 4.78125 3.65625 3.65625C4.78125 2.53125 6.10417 1.64063 7.625 0.984375C9.14583 0.328125 10.7708 0 12.5 0C14.2292 0 15.8542 0.328125 17.375 0.984375C18.8958 1.64063 20.2188 2.53125 21.3438 3.65625C22.4688 4.78125 23.3594 6.10417 24.0156 7.625C24.6719 9.14583 25 10.7708 25 12.5C25 14.2292 24.6719 15.8542 24.0156 17.375C23.3594 18.8958 22.4688 20.2188 21.3438 21.3438C20.2188 22.4688 18.8958 23.3594 17.375 24.0156C15.8542 24.6719 14.2292 25 12.5 25Z" fill="#52B561"/>
</svg>
