<svg width="22" height="21" viewBox="0 0 22 21" fill="none" xmlns="http://www.w3.org/2000/svg">
<path d="M7.58601 16.8H13.5464C13.8535 16.8 14.138 16.7256 14.3999 16.5769C14.6618 16.4281 14.8469 16.2225 14.9553 15.96L17.2311 10.815C17.2672 10.7275 17.2943 10.64 17.3124 10.5525C17.3304 10.465 17.3394 10.3775 17.3394 10.29V9.45C17.3394 9.1525 17.2356 8.90312 17.0279 8.70187C16.8202 8.50062 16.5628 8.4 16.2557 8.4H11.2706L11.9209 4.83C11.957 4.655 11.948 4.48875 11.8938 4.33125C11.8396 4.17375 11.7493 4.03375 11.6228 3.91125L10.8372 3.15L5.85206 8.4C5.70757 8.54 5.5992 8.6975 5.52695 8.8725C5.4547 9.0475 5.41858 9.24 5.41858 9.45V14.7C5.41858 15.2775 5.63081 15.7719 6.05526 16.1831C6.47972 16.5944 6.98996 16.8 7.58601 16.8ZM10.8372 21C9.33801 21 7.92918 20.7244 6.61066 20.1731C5.29214 19.6219 4.14521 18.8738 3.16987 17.9287C2.19452 16.9837 1.42238 15.8725 0.853426 14.595C0.284475 13.3175 0 11.9525 0 10.5C0 9.0475 0.284475 7.6825 0.853426 6.405C1.42238 5.1275 2.19452 4.01625 3.16987 3.07125C4.14521 2.12625 5.29214 1.37812 6.61066 0.826875C7.92918 0.275625 9.33801 0 10.8372 0C12.3363 0 13.7451 0.275625 15.0636 0.826875C16.3822 1.37812 17.5291 2.12625 18.5044 3.07125C19.4798 4.01625 20.2519 5.1275 20.8209 6.405C21.3898 7.6825 21.6743 9.0475 21.6743 10.5C21.6743 11.9525 21.3898 13.3175 20.8209 14.595C20.2519 15.8725 19.4798 16.9837 18.5044 17.9287C17.5291 18.8738 16.3822 19.6219 15.0636 20.1731C13.7451 20.7244 12.3363 21 10.8372 21ZM10.8372 18.9C13.2575 18.9 15.3075 18.0863 16.9872 16.4587C18.667 14.8312 19.5069 12.845 19.5069 10.5C19.5069 8.155 18.667 6.16875 16.9872 4.54125C15.3075 2.91375 13.2575 2.1 10.8372 2.1C8.41686 2.1 6.36683 2.91375 4.68707 4.54125C3.00731 6.16875 2.16743 8.155 2.16743 10.5C2.16743 12.845 3.00731 14.8312 4.68707 16.4587C6.36683 18.0863 8.41686 18.9 10.8372 18.9Z" fill="url(#paint0_linear_66_257)"/>
<defs>
<linearGradient id="paint0_linear_66_257" x1="0" y1="10.5" x2="26.51" y2="10.5" gradientUnits="userSpaceOnUse">
<stop stop-color="#5A0DFF"/>
<stop offset="0.31" stop-color="#FF29B8"/>
<stop offset="0.66" stop-color="#FF581C"/>
<stop offset="0.87" stop-color="#FF29B8"/>
<stop offset="1" stop-color="#5A0DFF"/>
</linearGradient>
</defs>
</svg>
