<svg width="34" height="65" viewBox="0 0 34 65" fill="none" xmlns="http://www.w3.org/2000/svg">
<mask id="path-1-inside-1_45_129" fill="white">
<path d="M1.41032 16.9271C0.63147 16.9271 -0.00602341 17.5596 0.0587921 18.3357C0.204117 20.076 0.618126 21.7862 1.28858 23.4048C2.13924 25.4585 3.38608 27.3245 4.95791 28.8963C6.52973 30.4682 8.39576 31.715 10.4494 32.5657C12.0681 33.2361 13.7783 33.6501 15.5185 33.7955C16.2947 33.8603 16.9272 33.2228 16.9272 32.4439C16.9272 31.6651 16.2942 31.041 15.5193 30.9632C14.1497 30.8259 12.8051 30.4885 11.5288 29.9599C9.81731 29.251 8.26221 28.2119 6.9523 26.902C5.64238 25.592 4.60329 24.0369 3.89437 22.3254C3.36571 21.0491 3.02837 19.7045 2.891 18.335C2.81327 17.56 2.18918 16.9271 1.41032 16.9271Z"/>
</mask>
<path d="M1.41032 16.9271C0.63147 16.9271 -0.00602341 17.5596 0.0587921 18.3357C0.204117 20.076 0.618126 21.7862 1.28858 23.4048C2.13924 25.4585 3.38608 27.3245 4.95791 28.8963C6.52973 30.4682 8.39576 31.715 10.4494 32.5657C12.0681 33.2361 13.7783 33.6501 15.5185 33.7955C16.2947 33.8603 16.9272 33.2228 16.9272 32.4439C16.9272 31.6651 16.2942 31.041 15.5193 30.9632C14.1497 30.8259 12.8051 30.4885 11.5288 29.9599C9.81731 29.251 8.26221 28.2119 6.9523 26.902C5.64238 25.592 4.60329 24.0369 3.89437 22.3254C3.36571 21.0491 3.02837 19.7045 2.891 18.335C2.81327 17.56 2.18918 16.9271 1.41032 16.9271Z" stroke="#8E8E8E" stroke-width="10" mask="url(#path-1-inside-1_45_129)"/>
<mask id="path-2-inside-2_45_129" fill="white">
<path d="M16.9271 32.5561C16.9271 31.7772 16.2946 31.1397 15.5185 31.2045C13.7782 31.3499 12.068 31.7639 10.4494 32.4343C8.39568 33.285 6.52965 34.5318 4.95783 36.1037C3.386 37.6755 2.13916 39.5415 1.2885 41.5952C0.618044 43.2138 0.204036 44.924 0.0587119 46.6643C-0.00610253 47.4404 0.631388 48.0729 1.41024 48.0729C2.1891 48.0729 2.81319 47.44 2.89092 46.665C3.02829 45.2955 3.36563 43.9509 3.89429 42.6746C4.60321 40.9631 5.6423 39.408 6.95221 38.098C8.26213 36.7881 9.81723 35.749 11.5287 35.0401C12.805 34.5115 14.1497 34.1741 15.5192 34.0368C16.2941 33.959 16.9271 33.3349 16.9271 32.5561Z"/>
</mask>
<path d="M16.9271 32.5561C16.9271 31.7772 16.2946 31.1397 15.5185 31.2045C13.7782 31.3499 12.068 31.7639 10.4494 32.4343C8.39568 33.285 6.52965 34.5318 4.95783 36.1037C3.386 37.6755 2.13916 39.5415 1.2885 41.5952C0.618044 43.2138 0.204036 44.924 0.0587119 46.6643C-0.00610253 47.4404 0.631388 48.0729 1.41024 48.0729C2.1891 48.0729 2.81319 47.44 2.89092 46.665C3.02829 45.2955 3.36563 43.9509 3.89429 42.6746C4.60321 40.9631 5.6423 39.408 6.95221 38.098C8.26213 36.7881 9.81723 35.749 11.5287 35.0401C12.805 34.5115 14.1497 34.1741 15.5192 34.0368C16.2941 33.959 16.9271 33.3349 16.9271 32.5561Z" stroke="#8E8E8E" stroke-width="10" mask="url(#path-2-inside-2_45_129)"/>
</svg>
