<svg width="61" height="60" viewBox="0 0 61 60" fill="none" xmlns="http://www.w3.org/2000/svg">
<g clip-path="url(#clip0_66_168)">
<g filter="url(#filter0_ii_66_168)">
<path d="M30.5 60C47.0685 60 60.5 46.5685 60.5 30C60.5 13.4315 47.0685 0 30.5 0C13.9315 0 0.5 13.4315 0.5 30C0.5 46.5685 13.9315 60 30.5 60Z" fill="white" fill-opacity="0.3"/>
</g>
<path opacity="0.4" d="M31.0456 32.9235C26.3388 32.9235 22.3184 33.6656 22.3184 36.6339C22.3184 39.6034 26.3137 40.3717 31.0456 40.3717C35.7525 40.3717 39.7729 39.6307 39.7729 36.6612C39.7729 33.6917 35.7787 32.9235 31.0456 32.9235Z" fill="white"/>
<path d="M31.0448 30.096C34.2511 30.096 36.82 27.5259 36.82 24.3207C36.82 21.1155 34.2511 18.5454 31.0448 18.5454C27.8396 18.5454 25.2695 21.1155 25.2695 24.3207C25.2695 27.5259 27.8396 30.096 31.0448 30.096Z" fill="white"/>
</g>
<defs>
<filter id="filter0_ii_66_168" x="-3.5" y="-5" width="66" height="69" filterUnits="userSpaceOnUse" color-interpolation-filters="sRGB">
<feFlood flood-opacity="0" result="BackgroundImageFix"/>
<feBlend mode="normal" in="SourceGraphic" in2="BackgroundImageFix" result="shape"/>
<feColorMatrix in="SourceAlpha" type="matrix" values="0 0 0 0 0 0 0 0 0 0 0 0 0 0 0 0 0 0 127 0" result="hardAlpha"/>
<feOffset dx="2" dy="4"/>
<feGaussianBlur stdDeviation="2.5"/>
<feComposite in2="hardAlpha" operator="arithmetic" k2="-1" k3="1"/>
<feColorMatrix type="matrix" values="0 0 0 0 0.121569 0 0 0 0 0.121569 0 0 0 0 0.121569 0 0 0 0.2 0"/>
<feBlend mode="normal" in2="shape" result="effect1_innerShadow_66_168"/>
<feColorMatrix in="SourceAlpha" type="matrix" values="0 0 0 0 0 0 0 0 0 0 0 0 0 0 0 0 0 0 127 0" result="hardAlpha"/>
<feOffset dx="-4" dy="-5"/>
<feGaussianBlur stdDeviation="2.5"/>
<feComposite in2="hardAlpha" operator="arithmetic" k2="-1" k3="1"/>
<feColorMatrix type="matrix" values="0 0 0 0 0.121569 0 0 0 0 0.121569 0 0 0 0 0.121569 0 0 0 0.2 0"/>
<feBlend mode="normal" in2="effect1_innerShadow_66_168" result="effect2_innerShadow_66_168"/>
</filter>
<clipPath id="clip0_66_168">
<rect width="61" height="60" fill="white"/>
</clipPath>
</defs>
</svg>
